<?xml version='1.0' encoding='iso-8859-1'?>
<svg version="1.1" xmlns="http://www.w3.org/2000/svg" viewBox="0 0 137.145 137.145" xmlns:xlink="http://www.w3.org/1999/xlink" enable-background="new 0 0 137.145 137.145">
  <g>
    <g>
      <path d="m109.715,0h-82.286c-15.148,0-27.429,12.281-27.429,27.429v82.287c0,15.148 12.28,27.428 27.429,27.428h82.286c15.149,0 27.429-12.28 27.429-27.428v-82.287c0-15.148-12.28-27.429-27.429-27.429zm13.715,102.859c0,11.361-9.21,20.572-20.572,20.572h-68.571c-11.362,0-20.572-9.21-20.572-20.572v-68.572c0-11.362 9.21-20.572 20.572-20.572h68.572c11.361,0 20.572,9.21 20.572,20.572v68.572zm-20.572-68.572h-68.572v13.715h-6.857v6.857h6.857v34.286h-6.857v6.857h6.857v13.715h68.572v-13.715h6.857v-13.714h-6.857v-6.858h6.857v-13.714h-6.857v-6.857h6.857v-13.714h-6.857v-6.858zm-13.668,54.343c-0.909,2.716-2.395,4.692-4.457,5.926-2.255,1.378-4.899,1.638-7.929,0.781-3.002-0.848-6.017-2.658-9.045-5.431-3.029-2.772-5.661-6.208-7.899-10.31-1.655-3.077-2.917-6.226-3.785-9.445-0.869-3.219-1.307-6.2-1.312-8.944-0.006-2.743 0.422-5.2 1.286-7.368 0.863-2.167 2.145-3.771 3.846-4.81 1.811-1.107 4.224-1.383 7.238-0.829 0.553,0.156 0.906,0.554 1.057,1.191l2.725,11.772c0.067,0.35 0.07,0.648 0.007,0.894-0.11,0.432-0.386,0.782-0.83,1.054l-5.257,3.172c-0.645,0.446-0.859,1.046-0.645,1.8 0.697,2.543 1.657,4.912 2.88,7.107 1.279,2.344 2.734,4.424 4.365,6.239 0.539,0.582 1.141,0.67 1.808,0.263l5.162-2.803c0.393-0.318 0.823-0.412 1.289-0.28l.673,.488 8.389,7.921c0.446,0.459 0.59,0.995 0.434,1.612z"/>
    </g>
  </g>
</svg>
